<svg width="1200" height="630" viewBox="0 0 1200 630" xmlns="http://www.w3.org/2000/svg"><path fill="#fefbfb" d="M0 0h1200v630H0z"/><defs><clipPath id="a"><path d="M109 39h1048a4 4 0 0 1 4 4v496a4 4 0 0 1-4 4H109a4 4 0 0 1-4-4V43a4 4 0 0 1 4-4"/></clipPath></defs><g opacity=".9"><path fill="#ecebeb" d="M109 39h1048a4 4 0 0 1 4 4v496a4 4 0 0 1-4 4H109a4 4 0 0 1-4-4V43a4 4 0 0 1 4-4"/><path clip-path="url(#a)" fill="none" stroke="#000" stroke-width="8" d="M106.172 40.172A4 4 0 0 1 109 39h1048a4 4 0 0 1 4 4v496a4 4 0 0 1-4 4H109a4 4 0 0 1-4-4V43a4 4 0 0 1 1.172-2.828"/></g><defs><clipPath id="b"><path d="M76 63h1048a4 4 0 0 1 4 4v496a4 4 0 0 1-4 4H76a4 4 0 0 1-4-4V67a4 4 0 0 1 4-4"/></clipPath></defs><path fill="#fefbfb" d="M76 63h1048a4 4 0 0 1 4 4v496a4 4 0 0 1-4 4H76a4 4 0 0 1-4-4V67a4 4 0 0 1 4-4"/><path clip-path="url(#b)" fill="none" stroke="#000" stroke-width="8" d="M73.172 64.172A4 4 0 0 1 76 63h1048a4 4 0 0 1 4 4v496a4 4 0 0 1-4 4H76a4 4 0 0 1-4-4V67a4 4 0 0 1 1.172-2.828"/><clipPath id="c"><path d="M128 103h944v94H128z"/></clipPath><mask id="d"><path fill="#fff" d="M128 103h944v94H128z"/></mask><path d="M148.8 183.8q-6.3 0-11-2.1t-7.6-5.7l6.3-6.9q2.7 3.1 6 4.5t6.7 1.4q3.9 0 5.9-1.7 2-1.7 2-5 0-2.6-1.6-4-1.5-1.4-5.2-1.9l-5.2-.9q-6.8-1.2-9.8-5-3.1-3.9-3.1-9.4 0-7.3 4.8-11.3 4.8-4 13.3-4 5.9 0 10.2 1.8 4.3 1.8 7 4.9l-6.2 6.9q-2-2.3-4.7-3.5-2.8-1.3-6.2-1.3-7.3 0-7.3 6 0 2.6 1.6 3.9 1.7 1.3 5.3 1.9l5.3 1q6.1 1 9.4 4.6 3.3 3.5 3.3 9.5 0 3.5-1.2 6.5t-3.7 5.2q-2.4 2.2-6 3.4-3.5 1.2-8.3 1.2Zm45 0q-9.4 0-14.2-5.2-4.8-5.2-4.8-14.1 0-4.5 1.3-8.2 1.2-3.6 3.6-6.1 2.3-2.6 5.6-3.9 3.4-1.4 7.6-1.4 4.1 0 7.5 1.4 3.3 1.3 5.6 3.7 2.3 2.5 3.5 6 1.3 3.5 1.3 7.8v3.2h-25.4v.6q0 3.6 2.2 5.8 2.2 2.2 6.6 2.2 3.3 0 5.7-1.3 2.3-1.2 4.1-3.3l5.7 6.3q-2.1 2.6-6 4.6-3.9 1.9-9.9 1.9Zm-.9-31.2q-3.4 0-5.5 2.1-2 2.1-2 5.7v.6h15v-.6q0-3.7-2-5.7-2-2.1-5.5-2.1Zm62.7 30.4h-6.1q-3.3 0-5.4-1.7-2-1.7-2.3-4.9h-.4q-1 3.7-4 5.5-3 1.9-7.3 1.9-5.4 0-8.7-2.9-3.3-2.9-3.3-8.2 0-5.8 4.3-8.6 4.2-2.8 12.4-2.8h6v-1.9q0-3.3-1.5-5-1.6-1.7-5.2-1.7-3.4 0-5.5 1.3t-3.6 3.4l-5.8-5.2q1.8-3.2 5.8-5.2 4-2.1 10.3-2.1 7.6 0 11.9 3.5 4.3 3.5 4.3 10.6v16.2h4.1v7.8Zm-21.5-6.2q2.8 0 4.8-1.3 1.9-1.4 1.9-4V167h-5.7q-6.5 0-6.5 4.4v1.5q0 1.9 1.5 2.9t4 1Zm44.7 7q-6.2 0-10.8-1.9-4.6-1.8-6.9-5.1l6-5.5q2.2 2.4 5.1 3.7 2.9 1.3 6.6 1.3 3.2 0 5-.9 1.8-1 1.8-3 0-1.6-1.2-2.2-1.2-.6-3.4-1l-6-.9q-2.5-.4-4.7-1.2-2.1-.7-3.7-2t-2.5-3.2q-1-1.8-1-4.5 0-5.8 4.5-9.2 4.5-3.3 12.5-3.3 5.5 0 9.4 1.5 3.8 1.5 6.1 4.2l-5.3 6.1q-1.7-1.8-4.3-3.1-2.6-1.2-6.2-1.2-6.2 0-6.2 3.8 0 1.6 1.2 2.2 1.2.6 3.4 1l5.9.9q2.5.4 4.7 1.2 2.1.7 3.8 2 1.6 1.3 2.5 3.2.9 1.9.9 4.5 0 5.8-4.5 9.2-4.5 3.4-12.7 3.4Zm43.6 0q-4.3 0-7.8-1.3-3.4-1.3-5.8-3.9-2.5-2.5-3.8-6.1-1.2-3.6-1.2-8.1 0-4.6 1.2-8.2 1.3-3.6 3.8-6.1 2.4-2.5 5.8-3.8 3.5-1.4 7.8-1.4t7.8 1.4q3.4 1.3 5.8 3.8 2.5 2.5 3.8 6.1 1.2 3.6 1.2 8.2 0 4.5-1.2 8.1-1.3 3.6-3.8 6.1-2.4 2.6-5.8 3.9-3.5 1.3-7.8 1.3Zm0-7.9q3.6 0 5.6-2.2 2-2.3 2-6.4v-5.9q0-4.1-2-6.3t-5.6-2.2q-3.6 0-5.6 2.2-2 2.2-2 6.3v5.9q0 4.1 2 6.4 2 2.2 5.6 2.2Zm36.9 7.1h-10.6v-37.2h10.6v6.8h.5q.6-1.6 1.6-3 .9-1.4 2.2-2.4 1.4-1 3.1-1.7 1.8-.6 4-.6 2.7 0 4.9.9t3.8 2.7q1.6 1.8 2.5 4.4.9 2.6.9 6V183h-10.6v-22.7q0-7.2-6.3-7.2-1.2 0-2.4.4-1.2.3-2.1 1-1 .7-1.5 1.7-.6 1-.6 2.3V183Zm112.9 0h-35v-8.8h13.5v-33.7h-.6l-10.3 13.4-6.9-5.4 12-15.8h16.6v41.5h10.7v8.8Zm82.5 0h-32.1v-50.3h32.1v8.9h-21.3v11.5H554v8.8h-20.6v12.2h21.3v8.9Zm9.5 14.4v-51.6h10.7v6.8h.5q1.4-3.3 4-5.5t7-2.2q3.1 0 5.7 1.2 2.5 1.1 4.4 3.5 1.8 2.4 2.8 6.1 1.1 3.6 1.1 8.7 0 5-1.1 8.7-1 3.7-2.8 6-1.9 2.4-4.4 3.6-2.6 1.1-5.7 1.1-4.4 0-7-2.1-2.6-2.1-4-5.5h-.5v21.2h-10.7Zm17.6-21.9q3.6 0 5.6-2.2 1.9-2.2 1.9-6v-5.8q0-3.9-1.9-6.1-2-2.2-5.6-2.2-2.8 0-4.8 1.4-2.1 1.4-2.1 4.3v10.9q0 3 2.1 4.4 2 1.3 4.8 1.3Zm45.3-34.5q-3.6 0-5-1.4-1.4-1.5-1.4-3.6v-2.1q0-2.1 1.4-3.6 1.4-1.4 5-1.4t5 1.4q1.4 1.5 1.4 3.6v2.1q0 2.1-1.4 3.6-1.4 1.4-5 1.4ZM610 183v-8.3h11.8v-20.6H610v-8.3h22.4v28.9h11v8.3H610Zm57.6.8q-6.2 0-10.8-1.9-4.6-1.8-6.9-5.1l6-5.5q2.2 2.4 5.1 3.7 2.9 1.3 6.6 1.3 3.2 0 5-.9 1.8-1 1.8-3 0-1.6-1.2-2.2-1.2-.6-3.4-1l-6-.9q-2.5-.4-4.7-1.2-2.1-.7-3.7-2t-2.5-3.2q-1-1.8-1-4.5 0-5.8 4.5-9.2 4.5-3.3 12.5-3.3 5.5 0 9.4 1.5 3.8 1.5 6.1 4.2l-5.3 6.1q-1.7-1.8-4.3-3.1-2.6-1.2-6.2-1.2-6.2 0-6.2 3.8 0 1.6 1.2 2.2 1.2.6 3.4 1l5.9.9q2.5.4 4.7 1.2 2.1.7 3.8 2 1.6 1.3 2.5 3.2.9 1.9.9 4.5 0 5.8-4.5 9.2-4.5 3.4-12.7 3.4Zm43.6 0q-4.3 0-7.8-1.3-3.4-1.3-5.8-3.9-2.5-2.5-3.8-6.1-1.2-3.6-1.2-8.1 0-4.6 1.2-8.2 1.3-3.6 3.8-6.1 2.4-2.5 5.8-3.8 3.5-1.4 7.8-1.4t7.8 1.4q3.4 1.3 5.8 3.8 2.5 2.5 3.8 6.1 1.2 3.6 1.2 8.2 0 4.5-1.2 8.1-1.3 3.6-3.8 6.1-2.4 2.6-5.8 3.9-3.5 1.3-7.8 1.3Zm0-7.9q3.6 0 5.6-2.2 2-2.3 2-6.4v-5.9q0-4.1-2-6.3t-5.6-2.2q-3.6 0-5.6 2.2-2 2.2-2 6.3v5.9q0 4.1 2 6.4 2 2.2 5.6 2.2Zm49.9 7.1v-6.8h-.5q-1.4 3.4-4 5.5t-7 2.1q-3.1 0-5.7-1.1-2.5-1.2-4.4-3.6-1.8-2.3-2.8-6-1.1-3.7-1.1-8.7 0-5.1 1.1-8.7 1-3.7 2.8-6.1 1.9-2.4 4.4-3.5 2.6-1.2 5.7-1.2 2.2 0 3.9.6 1.8.6 3.1 1.6t2.3 2.4q1 1.4 1.7 3.1h.5v-22.9h10.7V183h-10.7Zm-6.9-7.5q2.8 0 4.8-1.3 2.1-1.4 2.1-4.4v-10.9q0-2.9-2.1-4.3-2-1.4-4.8-1.4-3.6 0-5.6 2.2-1.9 2.2-1.9 6.1v5.8q0 3.8 1.9 6 2 2.2 5.6 2.2Zm44.4 8.3q-9.4 0-14.2-5.2-4.8-5.2-4.8-14.1 0-4.5 1.3-8.2 1.2-3.6 3.6-6.1 2.3-2.6 5.6-3.9 3.4-1.4 7.6-1.4 4.1 0 7.5 1.4 3.3 1.3 5.6 3.7 2.3 2.5 3.5 6 1.3 3.5 1.3 7.8v3.2h-25.4v.6q0 3.6 2.2 5.8 2.2 2.2 6.6 2.2 3.3 0 5.7-1.3 2.3-1.2 4.1-3.3l5.7 6.3q-2.1 2.6-6 4.6-3.9 1.9-9.9 1.9Zm-.9-31.2q-3.4 0-5.5 2.1-2 2.1-2 5.7v.6h15v-.6q0-3.7-2-5.7-2-2.1-5.5-2.1Zm104.7 21.3v9.1h-36.2v-9.9l15.9-13.2q4.1-3.5 5.9-6.1 1.8-2.6 1.8-5.5v-.7q0-3.2-1.9-4.8-1.9-1.6-5.1-1.6-3.6 0-5.5 2.1t-2.7 4.9l-9.5-3.6q.9-2.5 2.4-4.9 1.5-2.3 3.9-4.1 2.3-1.7 5.4-2.7 3.1-1.1 7.1-1.1 4.1 0 7.4 1.2 3.2 1.1 5.4 3.2 2.3 2 3.4 4.7 1.2 2.8 1.2 6.1 0 3.1-1.1 5.7-1 2.7-2.8 5-1.9 2.3-4.4 4.4-2.4 2.2-5.3 4.4l-9.5 7.4h24.2Z" clip-path="url(#c)" mask="url(#d)"/><path d="M130.7 520.3v-20.7h2.2v8.6h.1q1.4-2.7 4.5-2.7 2.6 0 4.1 2 1.5 2 1.5 5.5 0 3.6-1.5 5.6-1.5 2-4.1 2-3.1 0-4.5-2.7h-.1v2.4h-2.2Zm5.9-1.7q2 0 3-1.2 1.1-1.2 1.1-3.1v-2.5q0-1.9-1.1-3.1-1-1.2-3-1.2-.8 0-1.4.2-.7.2-1.2.5-.5.4-.8 1-.3.5-.3 1.2v5.3q0 .7.3 1.2.3.6.8.9.5.4 1.2.6.6.2 1.4.2Zm18.8-6.7 2.5-6.1h2.2l-7.2 17.6q-.2.7-.5 1.1-.3.5-.7.8-.5.3-1 .4-.6.2-1.4.2h-2.2V524h3.4l1.6-4-5.8-14.2h2.3l2.4 6.1 2.2 5.5h.1l2.1-5.5Z"/><clipPath id="e"><path d="M178 489h185v36H178z"/></clipPath><mask id="f"><path fill="#fff" d="M178 489h185v36H178z"/></mask><path d="M180.2 520.1v-19.6h6.8q2.9 0 4.4 1.4 1.6 1.4 1.6 3.9 0 1.6-.9 2.6-.8 1-2.3 1.5v.1q1.8.5 2.8 1.6 1 1.1 1 3.1 0 2.5-1.6 3.9-1.5 1.5-4.3 1.5h-7.5Zm4-2.9h2.2q1.5 0 2.2-.6.7-.5.7-1.8v-.8q0-1.4-.7-1.9t-2.2-.5h-2.2v5.6Zm0-8.4h1.6q1.5 0 2.2-.5.7-.4.7-1.7v-.9q0-1.3-.7-1.7-.7-.5-2.2-.5h-1.6v5.3Zm19.4 11.6q-3.6 0-5.5-2t-1.9-5.5q0-1.7.5-3.2.5-1.4 1.4-2.4.9-1 2.2-1.5 1.3-.5 2.9-.5 1.7 0 2.9.5 1.3.5 2.2 1.5.9.9 1.4 2.3.5 1.4.5 3v1.3h-9.9v.2q0 1.4.9 2.3.9.8 2.5.8 1.3 0 2.2-.5 1-.4 1.6-1.3l2.3 2.5q-.9 1-2.4 1.8-1.5.7-3.8.7Zm-.3-12.1q-1.4 0-2.2.8-.8.8-.8 2.2v.3h5.8v-.3q0-1.4-.7-2.2-.8-.8-2.1-.8Zm14.3 11.8h-4.2v-14.5h4.2v2.7h.1l.6-1.2q.4-.5.9-.9t1.2-.7q.7-.2 1.6-.2 1 0 1.9.4.9.3 1.5 1t.9 1.7q.4 1 .4 2.3v9.4h-4.2v-8.8q0-2.8-2.4-2.8-.5 0-.9.1-.5.2-.9.4-.3.3-.5.7-.2.4-.2.9v9.5Zm34 0h-4.2v-19.6h13v3.5h-8.8v4.5h7.9v3.4h-7.9v8.2Zm26.4 0h-2.4q-1.3 0-2-.7-.8-.6-1-1.9h-.1q-.4 1.5-1.6 2.2-1.1.7-2.8.7-2.1 0-3.4-1.1-1.2-1.1-1.2-3.2 0-2.3 1.6-3.3 1.7-1.1 4.9-1.1h2.3v-.8q0-1.3-.6-1.9-.6-.7-2.1-.7-1.3 0-2.1.5t-1.4 1.4l-2.3-2.1q.8-1.2 2.3-2 1.6-.8 4-.8 3 0 4.7 1.4 1.6 1.3 1.6 4.1v6.3h1.6v3Zm-8.3-2.4q1.1 0 1.8-.5.8-.6.8-1.6v-1.7h-2.2q-2.6 0-2.6 1.7v.6q0 .7.6 1.1.6.4 1.6.4Zm11.2 2.4v-3.2h3.3v-8h-3.3v-3.3h7.4v4.1h.2q.2-.8.6-1.5.3-.7.9-1.3.5-.6 1.3-.9.8-.4 1.9-.4h1.3v3.9h-3q-1.6 0-2.4.9-.8.9-.8 2.2v4.3h4.8v3.2h-12.2Zm16.8 0v-3.2h3.3v-8h-3.3v-3.3h7.4v4.1h.2q.2-.8.6-1.5.3-.7.9-1.3.5-.6 1.3-.9.8-.4 1.9-.4h1.3v3.9h-3q-1.6 0-2.4.9-.8.9-.8 2.2v4.3h4.8v3.2h-12.2Zm23.5.3q-3.6 0-5.5-2t-1.9-5.5q0-1.7.5-3.2.5-1.4 1.4-2.4.9-1 2.2-1.5 1.3-.5 2.9-.5 1.7 0 2.9.5 1.3.5 2.2 1.5.9.9 1.4 2.3.5 1.4.5 3v1.3h-9.9v.2q0 1.4.9 2.3.9.8 2.5.8 1.3 0 2.2-.5 1-.4 1.6-1.3l2.3 2.5q-.9 1-2.4 1.8-1.5.7-3.8.7Zm-.3-12.1q-1.4 0-2.2.8-.8.8-.8 2.2v.3h5.8v-.3q0-1.4-.7-2.2-.8-.8-2.1-.8Zm10.2 11.8v-3.2h4.4v-14.3h-4.4v-3.2h8.6v17.5h4.4v3.2h-13Zm16.8 0v-3.2h4.4v-14.3h-4.4v-3.2h8.6v17.5h4.4v3.2h-13Z" clip-path="url(#e)" mask="url(#f)"/><clipPath id="g"><path d="M651 489h420v36H651z"/></clipPath><mask id="h"><path fill="#fff" d="M651 489h420v36H651z"/></mask><path d="M657.8 520.1h-5.3l-1.2-19.6h3.6l.6 11.8.1 3.6h.3l1.7-11.1h3.8l1.6 11.1h.3l.2-3.5.5-11.9h3.5l-1.2 19.6H661l-1.5-10.8h-.2l-1.5 10.8Zm18.8.3q-3.6 0-5.5-2t-1.9-5.5q0-1.7.5-3.2.5-1.4 1.4-2.4.9-1 2.2-1.5 1.3-.5 2.9-.5 1.7 0 2.9.5 1.3.5 2.2 1.5.9.9 1.4 2.3.5 1.4.5 3v1.3h-9.9v.2q0 1.4.9 2.3.9.8 2.5.8 1.3 0 2.2-.5 1-.4 1.6-1.3l2.3 2.5q-.9 1-2.4 1.8-1.5.7-3.8.7Zm-.3-12.1q-1.4 0-2.2.8-.8.8-.8 2.2v.3h5.8v-.3q0-1.4-.7-2.2-.8-.8-2.1-.8Zm10 11.8v-20.7h4.1v8.9h.2q.5-1.3 1.5-2.2 1-.8 2.8-.8 1.2 0 2.2.5 1 .4 1.7 1.3.7 1 1.1 2.4.4 1.4.4 3.4 0 1.9-.4 3.4-.4 1.4-1.1 2.3-.7.9-1.7 1.4-1 .4-2.2.4-1.8 0-2.8-.8-1-.8-1.5-2.1h-.2v2.6h-4.1Zm6.8-2.9q1.4 0 2.1-.8.8-.9.8-2.4v-2.3q0-1.5-.8-2.3-.7-.9-2.1-.9-1.1 0-1.9.6-.8.5-.8 1.6v4.3q0 1.1.8 1.7.8.5 1.9.5Zm33.9 3.2q-3.9 0-5.8-2.6-1.9-2.7-1.9-7.5t1.9-7.4q1.9-2.7 5.8-2.7 1.6 0 2.7.4 1.2.4 2 1.2.9.7 1.4 1.7.6 1.1.9 2.3l-4 1q-.1-.7-.3-1.3-.3-.6-.6-1-.4-.4-.9-.7-.5-.2-1.2-.2-1.7 0-2.5 1.3-.7 1.4-.7 3.7v3.4q0 2.4.7 3.7.8 1.3 2.5 1.3 1.4 0 2.1-.9.6-.9.9-2.3l4 1q-.3 1.3-.9 2.3-.5 1.1-1.4 1.8-.8.7-2 1.1-1.1.4-2.7.4Zm16.4 0q-1.7 0-3-.5-1.4-.5-2.3-1.5-.9-1-1.4-2.4-.6-1.4-.6-3.1 0-1.8.6-3.2.5-1.4 1.4-2.4.9-1 2.3-1.5 1.3-.5 3-.5t3 .5q1.4.5 2.3 1.5.9 1 1.4 2.4.6 1.4.6 3.2 0 1.7-.6 3.1-.5 1.4-1.4 2.4-.9 1-2.3 1.5-1.3.5-3 .5Zm0-3.1q1.4 0 2.2-.8.8-.9.8-2.5v-2.3q0-1.6-.8-2.4-.8-.9-2.2-.9-1.4 0-2.2.9-.8.8-.8 2.4v2.3q0 1.6.8 2.5.8.8 2.2.8Zm12.6 2.8h-3.4v-14.5h3.4v2.2h.2q.3-1 .9-1.8.7-.7 1.8-.7 2.1 0 2.6 2.5h.2q.1-.5.4-1 .2-.4.6-.8.4-.3.9-.5t1.1-.2q3.1 0 3.1 4.5v10.3h-3.4v-9.9q0-1-.3-1.4-.4-.4-.9-.4-.6 0-.9.3-.4.4-.4 1.1v10.3h-3.4v-9.9q0-1-.3-1.4-.3-.4-.9-.4-.5 0-.9.3-.4.4-.4 1.1v10.3Zm14.3 5.6v-20.1h4.1v2.7h.2q.5-1.3 1.5-2.2 1-.8 2.8-.8 1.2 0 2.2.5 1 .4 1.7 1.3.7 1 1.1 2.4.4 1.4.4 3.4 0 1.9-.4 3.4-.4 1.4-1.1 2.3-.7.9-1.7 1.4-1 .4-2.2.4-1.8 0-2.8-.8-1-.8-1.5-2.1h-.2v8.2h-4.1Zm6.8-8.5q1.4 0 2.1-.8.8-.9.8-2.4v-2.3q0-1.5-.8-2.3-.7-.9-2.1-.9-1.1 0-1.9.6-.8.5-.8 1.6v4.3q0 1.1.8 1.7.8.5 1.9.5Zm16.7 3.2q-1.7 0-3-.5-1.4-.5-2.3-1.5-.9-1-1.4-2.4-.6-1.4-.6-3.1 0-1.8.6-3.2.5-1.4 1.4-2.4.9-1 2.3-1.5 1.3-.5 3-.5t3 .5q1.4.5 2.3 1.5.9 1 1.4 2.4.6 1.4.6 3.2 0 1.7-.6 3.1-.5 1.4-1.4 2.4-.9 1-2.3 1.5-1.3.5-3 .5Zm0-3.1q1.4 0 2.2-.8.8-.9.8-2.5v-2.3q0-1.6-.8-2.4-.8-.9-2.2-.9-1.4 0-2.2.9-.8.8-.8 2.4v2.3q0 1.6.8 2.5.8.8 2.2.8Zm14.4 2.8H804v-14.5h4.2v2.7h.1l.6-1.2q.4-.5.9-.9t1.2-.7q.7-.2 1.6-.2 1 0 1.9.4.9.3 1.5 1t.9 1.7q.4 1 .4 2.3v9.4h-4.2v-8.8q0-2.8-2.4-2.8-.5 0-.9.1-.5.2-.9.4-.3.3-.5.7-.2.4-.2.9v9.5Zm19.6.3q-3.6 0-5.5-2t-1.9-5.5q0-1.7.5-3.2.5-1.4 1.4-2.4.9-1 2.2-1.5 1.3-.5 2.9-.5 1.7 0 2.9.5 1.3.5 2.2 1.5.9.9 1.4 2.3.5 1.4.5 3v1.3h-9.9v.2q0 1.4.9 2.3.9.8 2.5.8 1.3 0 2.2-.5 1-.4 1.6-1.3l2.3 2.5q-.9 1-2.4 1.8-1.5.7-3.8.7Zm-.3-12.1q-1.4 0-2.2.8-.8.8-.8 2.2v.3h5.8v-.3q0-1.4-.7-2.2-.8-.8-2.1-.8Zm14.3 11.8h-4.2v-14.5h4.2v2.7h.1l.6-1.2q.4-.5.9-.9t1.2-.7q.7-.2 1.6-.2 1 0 1.9.4.9.3 1.5 1t.9 1.7q.4 1 .4 2.3v9.4h-4.2v-8.8q0-2.8-2.4-2.8-.5 0-.9.1-.5.2-.9.4-.3.3-.5.7-.2.4-.2.9v9.5Zm25.7 0h-5.4q-2.2 0-3.3-1.2-1.1-1.2-1.1-3v-7h-3.9v-3.3h2.5q.9 0 1.3-.3.4-.4.4-1.4v-3.4h3.8v5.1h5.7v3.3h-5.7v8h5.7v3.2Zm10.1.3q-2.4 0-4.2-.7-1.7-.7-2.6-2l2.3-2.1q.8.9 2 1.4 1.1.5 2.6.5 1.2 0 1.9-.4.7-.3.7-1.1 0-.6-.5-.9-.5-.2-1.3-.4l-2.3-.3q-1-.2-1.8-.5-.9-.2-1.5-.8-.6-.5-1-1.2-.3-.7-.3-1.7 0-2.3 1.7-3.6 1.7-1.3 4.9-1.3 2.1 0 3.6.6t2.4 1.6l-2.1 2.4q-.6-.7-1.6-1.2t-2.5-.5q-2.4 0-2.4 1.5 0 .6.5.9.5.2 1.3.3l2.3.4q1 .1 1.8.4.9.3 1.5.8t1 1.3q.4.7.4 1.7 0 2.3-1.8 3.6-1.7 1.3-5 1.3Zm27.4-.3v-3.2h4.2v-8h-4.5v-3.3h4.5v-2.1q0-1.8 1.1-3 1.1-1.1 3.4-1.1h4.9v3.2h-5.2v3h5.2v3.3h-5.2v8h4.5v3.2H905Zm16.9 0v-3.2h3.3v-8h-3.3v-3.3h7.4v4.1h.2q.2-.8.6-1.5.3-.7.9-1.3.5-.6 1.3-.9.8-.4 1.9-.4h1.3v3.9h-3q-1.6 0-2.4.9-.8.9-.8 2.2v4.3h4.8v3.2h-12.2Zm23.1.3q-1.7 0-3-.5-1.4-.5-2.3-1.5-.9-1-1.4-2.4-.6-1.4-.6-3.1 0-1.8.6-3.2.5-1.4 1.4-2.4.9-1 2.3-1.5 1.3-.5 3-.5t3 .5q1.4.5 2.3 1.5.9 1 1.4 2.4.6 1.4.6 3.2 0 1.7-.6 3.1-.5 1.4-1.4 2.4-.9 1-2.3 1.5-1.3.5-3 .5Zm0-3.1q1.4 0 2.2-.8.8-.9.8-2.5v-2.3q0-1.6-.8-2.4-.8-.9-2.2-.9-1.4 0-2.2.9-.8.8-.8 2.4v2.3q0 1.6.8 2.5.8.8 2.2.8Zm12.6 2.8h-3.4v-14.5h3.4v2.2h.2q.3-1 .9-1.8.7-.7 1.8-.7 2.1 0 2.6 2.5h.2q.1-.5.4-1 .2-.4.6-.8.4-.3.9-.5t1.1-.2q3.1 0 3.1 4.5v10.3H966v-9.9q0-1-.3-1.4-.4-.4-.9-.4-.6 0-.9.3-.4.4-.4 1.1v10.3h-3.4v-9.9q0-1-.3-1.4-.3-.4-.9-.4-.5 0-.9.3-.4.4-.4 1.1v10.3Zm37.5.3q-2.5 0-4.3-.8-1.8-.8-2.9-2.2l2.4-2.7q1.1 1.2 2.3 1.8 1.3.5 2.6.5 1.5 0 2.3-.7.8-.6.8-1.9 0-1-.6-1.6-.6-.5-2-.7l-2.1-.4q-2.6-.4-3.8-1.9-1.1-1.5-1.1-3.7 0-2.8 1.8-4.3 1.8-1.6 5.2-1.6 2.2 0 3.9.7 1.7.7 2.7 1.9l-2.3 2.7q-.8-.9-1.9-1.4-1-.5-2.4-.5-2.8 0-2.8 2.4 0 1 .6 1.5t2.1.7l2 .4q2.4.4 3.7 1.8 1.3 1.3 1.3 3.7 0 1.3-.5 2.5t-1.4 2q-1 .9-2.4 1.4-1.4.4-3.2.4Zm10.4 5.3v-20.1h4.1v2.7h.2q.5-1.3 1.5-2.2 1-.8 2.8-.8 1.2 0 2.2.5 1 .4 1.7 1.3.7 1 1.1 2.4.4 1.4.4 3.4 0 1.9-.4 3.4-.4 1.4-1.1 2.3-.7.9-1.7 1.4-1 .4-2.2.4-1.8 0-2.8-.8-1-.8-1.5-2.1h-.2v8.2h-4.1Zm6.8-8.5q1.4 0 2.1-.8.8-.9.8-2.4v-2.3q0-1.5-.8-2.3-.7-.9-2.1-.9-1.1 0-1.9.6-.8.5-.8 1.6v4.3q0 1.1.8 1.7.8.5 1.9.5Zm24.3 2.9h-2.4q-1.3 0-2-.7-.8-.6-1-1.9h-.1q-.4 1.5-1.6 2.2-1.1.7-2.8.7-2.1 0-3.4-1.1-1.2-1.1-1.2-3.2 0-2.3 1.6-3.3 1.7-1.1 4.9-1.1h2.3v-.8q0-1.3-.6-1.9-.6-.7-2.1-.7-1.3 0-2.1.5t-1.4 1.4l-2.3-2.1q.8-1.2 2.3-2 1.6-.8 4-.8 3 0 4.7 1.4 1.6 1.3 1.6 4.1v6.3h1.6v3Zm-8.3-2.4q1.1 0 1.8-.5.8-.6.8-1.6v-1.7h-2.2q-2.6 0-2.6 1.7v.6q0 .7.6 1.1.6.4 1.6.4Zm18.1 2.7q-1.7 0-3.1-.5-1.3-.5-2.3-1.5-.9-1-1.4-2.4-.5-1.4-.5-3.1 0-1.8.5-3.2.5-1.4 1.4-2.4 1-1 2.3-1.5 1.4-.5 3.1-.5 2.3 0 3.8 1 1.4.9 2.2 2.5l-3.2 1.8q-.4-.9-1-1.4-.7-.6-1.8-.6-1.5 0-2.2.8-.8.9-.8 2.3v2.3q0 1.5.8 2.3.7.8 2.2.8 1.2 0 1.9-.5.7-.6 1.2-1.5l3.1 1.8q-.8 1.6-2.3 2.6-1.5.9-3.9.9Zm16.6 0q-3.6 0-5.5-2t-1.9-5.5q0-1.7.5-3.2.5-1.4 1.4-2.4.9-1 2.2-1.5 1.3-.5 2.9-.5 1.7 0 2.9.5 1.3.5 2.2 1.5.9.9 1.4 2.3.5 1.4.5 3v1.3h-9.9v.2q0 1.4.9 2.3.9.8 2.5.8 1.3 0 2.2-.5 1-.4 1.6-1.3l2.3 2.5q-.9 1-2.4 1.8-1.5.7-3.8.7Zm-.3-12.1q-1.4 0-2.2.8-.8.8-.8 2.2v.3h5.8v-.3q0-1.4-.7-2.2-.8-.8-2.1-.8Z" clip-path="url(#g)" mask="url(#h)"/></svg>