<svg xmlns="http://www.w3.org/2000/svg" viewBox="0 0 236.97 119.86">
<defs><style>
    .cls-1{fill:#fff;}
    .cls-2{fill:none;stroke:#fff;stroke-miterlimit:10;}
</style></defs>
<path class="cls-1" d="m22.84,45.6c2.25.33,3.66.72,4.22,1.16v-.77h3.09c.59,0,1.1.13,1.55.39.44-.26.96-.39,1.55-.39.84,0,1.49.13,1.93.39l2.29-.39h.77c.59,0,.97.65,1.16,1.93-.21.98-1.5,2.65-3.87,4.99l-1.9-.39c-.21,0-1.34.13-3.38.39,0-.26-.13-.39-.39-.39,0,.68-.39,1.58-1.16,2.71.21,1.03.47,1.55.77,1.55l-.39.77.39.77h-.39l.39.77v.39h-.77c0,.26.13.39.39.39-.52,1.9-.77,3.18-.77,3.83l.77,2.71c.77,0,2.16-.26,4.15-.77l.77.39.77-.39c.49.26.87.39,1.12.39v.77l-.39,1.93c.26,0,.39.13.39.39-.82,1.55-2.61,2.84-5.38,3.87,0-.26-.48-.39-1.44-.39-.45,1.03-.96,1.55-1.55,1.55v1.51l-.39,1.93h.39l-.77,2.32h.77c-.26.77-.52,1.16-.77,1.16l.39.77c0,.49-.26,1.78-.77,3.87.52.07.77.32.77.74v.39c-.77,1.2-1.16,12.23-1.16,13.09l.77.39h.77c-2.16,10.99-3.23,16.62-3.23,16.88l-.77-.39c-1.36.52-2.75-2.29-4.18-8.4,0-.26-.52-.76-1.55-1.51l.77-1.93-.39-.77c.26-.49.39-.88.39-1.16,0-.26-.13-.39-.39-.39l.39-1.93c0-.59-.13-11.1-.39-11.55,1.03-3.84,1.55-6.02,1.55-6.54l-.77-1.55c.52-2.44,1.03-4.11,1.55-5.03-.26-.44-.39-.95-.39-1.51h.39c0-.26-.13-.39-.39-.39.33-3.14.59-4.94.77-5.41h-.39l.39-.77c-.26-.49-.39-.88-.39-1.16h.39l-.39-.77c0-1.76.39-3.68,1.16-5.77-.26-.52-.39-.9-.39-1.16l.39-.77c0-.26-.13-.39-.39-.39l.39-1.93v-1.16l-.39-.77c.26,0,.39-.13.39-.39-.52,0-.77-.26-.77-.77,0-.26.13-.39.39-.39l-.77-1.51h.39c-.42-.84-.81-2-1.16-3.48l2.32-1.55c.52,0,.77-.13.77-.39Zm-4.25,62.42h.39v1.55h-.39v-1.55Zm6.89,10.69h.39c0,.28-.13.67-.39,1.16v-1.16Z"/>
<path class="cls-1" d="m41.26,45.6l1.83.35,3.69-.35,1.48.35,1.44-.35,4.43.35,1.83-.35,3.3,5.52c-.23,1.48-.48,2.21-.74,2.21l.39.74c0,.23-.13.35-.39.35l.39.74c0,.23-.13.35-.39.35l.39.74c0,.26-.13.39-.39.39l.39.74-.39.74h.39c-.26.47-.39.83-.39,1.09,0,.38.25,1.48.74,3.3-.49.8-.74,1.54-.74,2.21v.35l.39.74c-.26,0-.39.13-.39.39h.39c-.35,1.22-1.21,1.83-2.57,1.83l.35.74c-.49,0-.74.36-.74,1.09l-.74-.35h-.35l.35,1.83c0,.49-.36.74-1.09.74.42.54,1.28,3.35,2.57,8.44h-.35l.74,3.34h-.39c.73,1.78,1.22,3.61,1.48,5.48-.26.49-.39.87-.39,1.12.75,3.87,1.92,8.75,3.52,14.66-.75,0-1.12.25-1.12.74l.74-.35h.39c0,.73.25,1.7.74,2.92-.26,0-.39.13-.39.39h.74v.35c0,.49-.25.74-.74.74-1.24-1.48-2.21-2.21-2.92-2.21l.35-.74v-.35l-.74.35h-.74c-1.57-2.93-3.04-4.64-4.39-5.13,0-.26.12-.39.35-.39l-1.65-4.01c-.19-.96-.43-1.44-.74-1.44l.39-.74c0-1.48-.38-2.21-1.12-2.21.26-.87.39-1.36.39-1.48l-1.48-1.83c0-.26.12-.39.35-.39l-.35-.74v-.35l.35-.74h-.35l.35-.74c0-.23-.12-.35-.35-.35.23-.49.35-.87.35-1.12,0-.42-.23-1.15-.7-2.18h.35c-.4-1.48-.76-2.21-1.09-2.21l.35-.74c-.23-.42-.35-.91-.35-1.48.42-.23.9-.35,1.44-.35v-.39c-.96,0-1.44-.25-1.44-.74-1.57,0-2.67.98-3.3,2.95l.35,1.48c0,.19-.49,2.39-1.48,6.61,0,.91-.25,1.65-.74,2.21.49.8.74,1.41.74,1.83-.23.47-.35.83-.35,1.09.23,0,.35.13.35.39-.35,0-.72.61-1.09,1.83-.47-.23-.84-.35-1.12-.35-1.55,1.71-3.01,2.57-4.39,2.57,0-.26-.13-.62-.39-1.09h.39c-.49-.82-.74-1.56-.74-2.21v-.74l.35-2.21c0-.23-.12-.35-.35-.35l.35-2.6v-2.57c0-.23.13-.35.39-.35l-.39-.74c0-.26.13-.39.39-.39l-.39-.7v-1.48l.39-.74h-.39l.39-.74v-.39l-.39-.74h.74l-.35-.7h.74c0-.49-.38-.74-1.12-.74v-.39c0-.23.49-.6,1.48-1.09,0-.75-.36-1.12-1.09-1.12l.35-1.83h-.35c.23-.73.48-1.09.74-1.09,0-.26-.13-.39-.39-.39,0-.3.37-2.02,1.12-5.13h-.39c.49-3.42.87-5.13,1.12-5.13l-.39-.74c.26-.49.39-.87.39-1.12h-.39c.35-1.38.73-2.36,1.12-2.92h-.74l.35-.74c0-.26-.12-.39-.35-.39l.35-.74c0-.23-.12-.35-.35-.35l.35-.74c0-.23-.12-.35-.35-.35l.74-1.48c-.49,0-.74-.25-.74-.74,0-.26.12-.39.35-.39-.23-.47-.35-.83-.35-1.09s.12-.62.35-1.09l-.35-2.21v-.74c1.22,0,1.83-.25,1.83-.74Zm-2.21,30.52v.35c.26,0,.63.13,1.12.39v-.74h-1.12Zm8.47-24.64c-.33.33-.7,1.56-1.12,3.69l.39.74-.39.74c.26.42.39.91.39,1.48-.49.8-.74,1.41-.74,1.83.23,0,.35.12.35.35h-.35c0,.26.12.39.35.39-.28,2.18-.53,3.53-.74,4.04l.74,2.57-.74,2.57h.39c3.19-2.74,4.78-4.58,4.78-5.52h-.39l.74-2.92c-.23,0-.35-.13-.35-.39h.35l-.35-.74c0-.23.12-.35.35-.35l-.35-.74v-1.48c.05-1.22.29-1.83.74-1.83l-.39-.74v-1.48l.39-1.83c-.87-.26-1.36-.39-1.48-.39l-2.21.39c0-.26-.12-.39-.35-.39Zm6.43,51.82c.47.23.83.35,1.09.35v.39h-1.09v-.74Zm7.17-36.74h1.09c0,.49-.25.74-.74.74l-.35-.74Z"/>
<path class="cls-1" d="m68.23,45.35c3.23.26,4.85.5,4.85.74,1.24-.23,1.86-.48,1.86-.74,1.1.35,2.1.86,2.99,1.51.44-.26.95-.39,1.51-.39,0,.68,1,1.43,2.99,2.25,0,.23.13.35.39.35-.33,2.79-.57,4.54-.74,5.24.23.49.35.87.35,1.12-.23,0-.35.13-.35.39h.35l-.35.74c0,.26.12.39.35.39l-.35.74c0,.26.12.39.35.39l-.35.74v2.25l.35.74h-.35l.35.77v.35h-.74c.49,1.59.74,2.47.74,2.64-.49.91-.74,1.91-.74,2.99l.39,3.38c0,.7-.63,2.7-1.9,5.98v.39c0,1.73.37,2.6,1.12,2.6v4.5l-.35.74c.4,0,.77.25,1.12.74-1.15,4.24-2.65,6.36-4.5,6.36-2.23,2.04-3.35,3.16-3.38,3.38-3.23-.26-4.85-.5-4.85-.74-1.27.23-1.9.48-1.9.74-1.08-.35-2.07-.86-2.99-1.51-.42.26-.91.39-1.48.39,0-.68-1-1.43-2.99-2.25,0-.23-.13-.35-.39-.35.3-3.05.55-4.79.74-5.24-.23-.49-.35-.87-.35-1.12.23,0,.35-.13.35-.39h-.35l.35-.74c0-.26-.12-.39-.35-.39l.35-.74c0-.26-.12-.39-.35-.39l.35-.74v-2.25l-.35-.74h.35l-.35-.77v-.35h.74c-.49-1.59-.74-2.47-.74-2.64.49-.91.74-1.91.74-2.99l-.39-3.38c0-.7.62-2.69,1.86-5.98v-.39c0-1.73-.36-2.6-1.09-2.6v-4.5l.35-.74c-.4,0-.77-.25-1.12-.74,1.15-4.24,2.65-6.36,4.5-6.36,2.25-2.04,3.38-3.16,3.38-3.38Zm2.25,7.42v.84l-.39,2.92h.39l-1.51,7.07c.26.54.39.96.39,1.27h-.39c0,.28.13.42.39.42l-.39,2.92.39,2.07h-.39l.39.84c0,2.23-.38,5.98-1.12,11.25v.81c0,.28.12.42.35.42l-.35.84c0,.28.12.42.35.42l-.74,2.07c0,.28.13.42.39.42l-.39,2.07v.84l.74-.42h.39c.49.09.74.38.74.84.82-.56,1.57-.84,2.25-.84v-.84l.39-2.92h-.39c.26-1.76.76-3.97,1.51-6.64l-.39-.84v-.42c0-.28.13-.42.39-.42,0-.28-.13-.42-.39-.42l.39-2.92-.39-2.07h.39l-.39-.84c0-2.23.37-5.98,1.12-11.25v-.81c0-.28-.13-.42-.39-.42l.39-.84c0-.28-.13-.42-.39-.42l.77-2.07c0-.28-.13-.42-.39-.42l.39-2.07v-.84l-.77.42h-.35c-.52,0-.77-.28-.77-.84-.8.56-1.54.84-2.21.84Z"/>
<path class="cls-1" d="m107.22,45.6c.98.38,1.48.75,1.48,1.12l1.9-.39h1.86l.74.39v-.39c1.5,0,2.25,1.5,2.25,4.5s-.25,5.25-.74,6.75l.39.74-.77,2.25v1.12c-.49,0-.74.38-.74,1.12l.39.77c-.26.42-.39.91-.39,1.48l.74-.35c0,.49.13.74.39.74,0,.3-.38.93-1.12,1.86l.39.77-.77,1.48c0,.26.13.39.39.39-.33,2.81-.7,4.8-1.12,5.98.26.49.39.87.39,1.12l-.77.39.39.74v.77c0,.56-.13,1.05-.39,1.48,0,.26.13.39.39.39-.75,4.62-1.12,17.73-1.12,19.35-.49,0-.74.13-.74.39s.12.39.35.39c-.63,8.2-1.32,12.74-2.07,13.61l.35,2.25v.35h-.74l-3.9-13.22.39-.74c0-.19-.13-.94-.39-2.25.26-.49.39-.87.39-1.12-.26,0-.39-.13-.39-.39.52,0,.77-10.25.77-10.74v-.39c0-.23-.13-.35-.39-.35.49-1.15.74-2.4.74-3.76l-.35-.74c.49-1.29.74-2.3.74-3.02-.49,0-.74-.25-.74-.74.49,0,1.11-2.38,1.86-7.14v-2.6l-.39-2.64c.52,0,.77-.25.77-.74-.28,0-.66-.13-1.12-.39-1.1,4.24-1.85,6.36-2.25,6.36l.35.77-1.48,3.73c-.75,0-1.12.26-1.12.77.49.8.74,1.42.74,1.86h-.39l-.74-.39-.39.77c.26,0,.39.12.39.35-.26,0-.39.13-.39.39.26,0,.39.13.39.39-.49.07-.74.32-.74.74,0,.26.12.39.35.39-.7,1.73-1.32,4.23-1.86,7.49-.49,0-.74.38-.74,1.12h-.77l-1.86-6.36c.26,0,.39-.13.39-.39-.26,0-.39-.13-.39-.39h.74c0-.49-.62-.74-1.86-.74,0-.75.37-1.12,1.12-1.12v-.39c-1.01,0-1.89-2.5-2.64-7.49.26,0,.39-.13.39-.39-.49,0-.74-.25-.74-.74h.35c-.33-1.5-.7-2.25-1.12-2.25,0-.23.13-.35.39-.35l-1.12-4.5h-.39c0,4.92-.49,8.79-1.48,11.6.35,0,.73.38,1.12,1.12h-.39l.39.74c0,2.02-.5,3.02-1.51,3.02v.74l1.12-.74v.35l-1.48,5.62c.23.49.35.87.35,1.12h-.35c.23.49.35.87.35,1.12l-.35.74.35.77c-.66,3.75-1.28,5.62-1.86,5.62-2.25-1.69-3.38-3.07-3.38-4.15-.75,0-1.12.38-1.12,1.12h-.74c0-.26.12-.63.35-1.12,0-.33-.25-1.7-.74-4.11.75-2.02,1.12-4.76,1.12-8.23-.26-.49-.39-.87-.39-1.12l.77-.39c0-.26-.13-.39-.39-.39.26-2.48.5-3.73.74-3.73l-.35-.77.35-1.48-.35-.77c.23-.42.35-.91.35-1.48h-.35c.19-1.01.43-1.51.74-1.51l-.39-.74c0-.75.26-1.75.77-2.99l-.39-.77c.49-1.27.74-2.26.74-2.99h-.35c.23,0,.48-2,.74-6.01-.26,0-.39-.12-.39-.35.52,0,.77-.26.77-.77l-.39-.74c.26-.47.39-.84.39-1.12-.26,0-.39-.12-.39-.35h.39c-.75-1.92-1.76-3.55-3.02-4.89v-.39c.59,0,1.84-.49,3.76-1.48h.74c4.5,0,6.75.87,6.75,2.6.68,0,1.18,1.76,1.51,5.27.42,0,1.04,1.75,1.86,5.24-.26,0-.39.12-.39.35.52.09.77.35.77.77v1.48l-.39.77c.75,0,1.12.87,1.12,2.6h.39c.52,0,1.38-1.5,2.6-4.5h-.35c.33-1.24.82-1.86,1.48-1.86l-.35-.74c0-.84.37-1.72,1.12-2.64h-.39c1.41-3.49,2.4-5.61,2.99-6.36l-.35-.74c.23,0,.35-.13.35-.39h-.35c.49-1.5,1.11-2.25,1.86-2.25Zm-22.85,51.33c.35,0,.73.37,1.12,1.12h-.39c-.49,0-.74-.25-.74-.74v-.39Zm1.48-16.1v.39c.37,0,.75-.37,1.12-1.12h-.35c-.52.07-.77.32-.77.74Zm18.46,26.84c.52.07.77.32.77.74v.39c-.52,0-.77-.25-.77-.74v-.39Z"/>
<path class="cls-1" d="m131.86,80.82c.05,1.05.18,1.58.39,1.58l-.39.77c0,.23.13.35.39.35-.42.94-.8,2.94-1.12,6.01l1.48.35,2.25-.35c0,.23.13.35.39.35l.74-1.12v-2.6c0-.56.13-1.07.39-1.51l-.39-.74c.26-1.36.39-2.48.39-3.38v-.35c0-.26-.13-.39-.39-.39l.39-.74c0-.26-.13-.39-.39-.39l.74-1.86c0-.26-.12-.39-.35-.39l.35-1.86v-.74l-.74.35h-.39c-.49,0-.74-.25-.74-.74l-1.48.74c0-.23-.13-.35-.39-.35v.35c-1.1-.35-2.1-.84-2.99-1.48-.45.26-.95.39-1.51.39,0-.7-1-1.45-2.99-2.25l-.35-.77.35-2.21-.74.35h-.39v-.35l1.51-2.64v-1.12c0-1.73-.38-2.6-1.12-2.6v-4.5l.39-.74c-.42,0-.8-.25-1.12-.74,1.22-4.5,2.96-6.75,5.24-6.75l2.6-2.99c3.23.26,4.85.5,4.85.74,1.24-.23,1.86-.48,1.86-.74,4.87,1.99,7.5,3.23,7.88,3.73l-.39,1.9v5.03c-.63,0-2.93.96-6.89,2.88l-1.16-.88c.37-2.3.56-3.64.56-4.04h-.35c-.45.23-.95.35-1.51.35l-.35-.74c-1.76.66-2.64,1.28-2.64,1.86l.39.74c-.26.45-.39.95-.39,1.51h.39c-.26,1.24-.5,1.86-.74,1.86l.35.74c-.45.91-.82,2.17-1.12,3.76.26.47.39.84.39,1.12h1.86c2.37.56,4,1.17,4.89,1.83.44-.26.95-.39,1.51-.39,0,.68,1,1.43,2.99,2.25,0,.23.12.35.35.35-.07,2.32-.2,3.83-.39,4.54.26.49.39.87.39,1.12-.26,0-.39.13-.39.39h.39l-.39.74c0,.26.13.39.39.39l-.39.74c0,.26.13.39.39.39l-.39.74v2.25l.39.74h-.39l.39.74v.39h-.77c.52,1.59.77,2.47.77,2.64-.63,2.44-1.89,5.43-3.76,8.96-1.88,0-3.36.49-4.46,1.48-.56,0-1.07-.12-1.51-.35l-4.85.74c0-.49-.25-.74-.74-.74l-2.64.35c0-.33-1-1.95-2.99-4.85v-1.48c0-.56.13-1.07.39-1.51-.26-.49-.39-.87-.39-1.12.26,0,.39-.13.39-.39h-.39l.39-.74c0-.23-.13-.35-.39-.35l.39-.77-.39-.74c1.36-.89,3.48-1.89,6.36-2.99,0-.19.35-.44,1.05-.77l.81.67Z"/>
<path class="cls-1" d="m150.46,45.77l1.51.39c.54,0,1.92-.13,4.15-.39l1.51.39,1.48-.39,4.54.39,1.86-.39c2.02,3.07,3.02,4.96,3.02,5.66v.74c0,.56-.13,1.07-.39,1.51.26.49.39.87.39,1.12h-.39l.39.74c0,.26-.13.39-.39.39l.39.74c0,.26-.13.39-.39.39l.39.77-.39.74h.39c-.26.49-.39.87-.39,1.12,0,.38.26,1.5.77,3.38-.52.84-.77,1.61-.77,2.29v.35l.39.77c-.26,0-.39.12-.39.35h.39c-.35,1.27-1.23,1.9-2.64,1.9l.39.74c-.52,0-.77.38-.77,1.12l-.74-.35h-.39l.39,1.86c0,.52-.25.77-.74.77,0-.26-.13-.39-.39-.39-.26,1.27-.89,1.9-1.9,1.9,0-.26-.12-.39-.35-.39,0,.59-.63,1.21-1.9,1.86-.49,0-.74-.25-.74-.74,1.15-1.01,2.03-1.51,2.64-1.51v-.39c-1.43,0-2.94.88-4.54,2.64,1.01.38,1.51.75,1.51,1.12-2.77,1.57-4.15,3.08-4.15,4.54l.39,1.51-1.9,17.91-.35.74c.49.82.74,1.44.74,1.86-.26.49-.39.88-.39,1.16.26,0,.39.12.39.35-.38,0-.75.5-1.12,1.51.26,0,.39.13.39.39h-.39c-.49-.26-.87-.39-1.12-.39-1.59,1.76-3.11,2.64-4.54,2.64,0-.26-.12-.63-.35-1.12h.35c-.49-.82-.74-1.57-.74-2.25v-.77l.39-2.25c0-.26-.13-.39-.39-.39l.39-2.64v-2.64c0-.23.12-.35.35-.35l-.35-.77c0-.23.12-.35.35-.35l-.35-.77v-11.51l.35-.74h-.35l.35-.74v-.39l-.35-.77h.74l-.39-.74h.77c0-.49-.38-.74-1.12-.74v-.39c0-.26.5-.63,1.51-1.12,0-.75-.39-1.12-1.16-1.12l.39-1.9h-.39c.26-.75.52-1.12.77-1.12,0-.26-.13-.39-.39-.39,0-.3.37-2.05,1.12-5.24h-.35c.49-3.52.87-5.27,1.12-5.27l-.39-.77c.26-.47.39-.84.39-1.12h-.39c.35-1.41.73-2.4,1.12-2.99h-.74v-.39l.35-.77h-.35l.35-.74c0-.26-.12-.39-.35-.39l.35-.74c0-.26-.12-.39-.35-.39l.35-.74-.35-1.9h.35c-.23-.47-.35-.84-.35-1.12,0-.26.12-.63.35-1.12l-.35-2.25v-.77c1.24,0,1.86-.25,1.86-.74Zm6.4,6.01l-.74,1.12v1.12c0,.26.12.39.35.39l-.74,2.64c.26.45.39.95.39,1.51-.52.82-.77,1.44-.77,1.86.26,0,.39.13.39.39h-.39c0,.26.13.39.39.39-.16,1.76-.41,2.64-.74,2.64l.35.74c0,.26-.12.39-.35.39,0,.47.25,1.48.74,3.02l-.74,2.6h.35c3.26-3.02,4.89-4.9,4.89-5.62h-.35c.23-1.76.48-2.64.74-2.64l-.39-.74v-.77c0-.26.13-.39.39-.39l-.39-.74c0-1.45.26-3.96.77-7.52l-1.51-.39-2.25.39c0-.26-.13-.39-.39-.39Zm13.92,15.43h1.12c0,.52-.25.77-.74.77h-.39v-.77Z"/>
<path class="cls-1" d="m173.52,45.77c5.51,0,8.26.6,8.26,1.79v6.47c0,.54.12,1.02.35,1.44-.23.42-.35.9-.35,1.44.23.47.35.83.35,1.09h-.35l.35.7c0,.23-.12.35-.35.35l.35.74v4.68c0,.23.13.35.39.35l-.74,1.79c.23.42.35.9.35,1.44,0,.23-.12.35-.35.35l.35.74v3.94c0,.23.13.35.39.35l-.39.74.39.7h-.39l.39.74c0,.23-.13.35-.39.35.19.3.43,1.98.74,5.03-.23.47-.35.83-.35,1.09.47.77.7,1.49.7,2.14h-.35l.35.74v.7h-.7c.16.96.4,1.44.7,1.44l-.35.74c0,.23.12.35.35.35l-.35.7v1.09c0,.23.12.35.35.35,0,.35-.36,1.79-1.09,4.32h-.35c0-.26-1.79-1.93-5.38-5.03-.33-3.21-.69-5.37-1.09-6.47h.35l-.7-2.18c-4.01,0-6.16,1.08-6.47,3.23l.35.74-3.23,12.59-.74.35h-1.44c-1.9-4.36-2.85-6.63-2.85-6.82h.35l-.35-.74c.23-.42.35-.9.35-1.44h-.35l-.74.35-.35-.7c.33,0,.69-.71,1.09-2.14.96,0,1.44-.96,1.44-2.88,1.9-7.05,2.85-10.89,2.85-11.5h-.35c.54-1.48,1.27-2.68,2.18-3.62,0-.23-.13-.35-.39-.35.56-3.84,1.16-5.77,1.79-5.77,0-1.2-.23-1.79-.7-1.79.73-1.22,1.09-2.41,1.09-3.59,0-.23-.13-.35-.39-.35,1.22-2.48,1.83-4.04,1.83-4.68v-3.97c0-1.43,1.08-2.14,3.23-2.14h.35Zm-8.26,53.23v.7h-1.44v-.35l1.44-.35Zm-.39-.74h1.44v.35h-1.44v-.35Zm9-36.67l-1.79,5.38c.47.8.7,1.41.7,1.83-.54,0-.89.6-1.05,1.79.23,0,.35.12.35.35-.49.07-.74.3-.74.7,0,.26.13.39.39.39-.26.28-.39,1-.39,2.14l.74.35,2.88-.7v-.39l-.74-1.05c.47-.23.83-.35,1.09-.35v-2.18c0-.23-.12-.35-.35-.35,0-.23.12-.35.35-.35l-.35-1.79v-2.18c0-.23.12-.35.35-.35l-.35-.7v-.74l.35-1.79h-1.44Zm5.77,32.34l.7.39c0-.26.12-.39.35-.39l.39.74h-1.44v-.74Zm1.05,1.09h1.83v.35h-1.83v-.35Z"/>
<path class="cls-1" d="m192.4,45.6c3.02.26,4.54.5,4.54.74,1.24-.23,1.86-.48,1.86-.74,4.87,1.99,7.5,3.25,7.88,3.76l-.39,1.86v6.86c-.7,0-3.45,1.93-8.23,5.8v-.35c.49-5.72.74-8.81.74-9.28h-.39c-.42.23-.91.35-1.48.35l-.39-.74c-1.99.66-2.99,1.28-2.99,1.86l.39.77c-.26.42-.39.91-.39,1.48h.39c-.26,1.27-.5,1.9-.74,1.9l.35.74c-.45.91-.82,2.17-1.12,3.76.26.47.39.84.39,1.12h-.39c0,.23.13.35.39.35l-.39,2.64.39,1.86h-.39l.39.77c0,2.02-.26,5.39-.77,10.12v.74c0,.26.13.39.39.39l-.39.74c0,.26.13.39.39.39-.45.91-.83,2.92-1.16,6.01l1.51.39,2.25-.39c0,.26.13.39.39.39l.74-1.12v-2.64c0-.56.13-1.07.39-1.51-.26-.44-.39-.95-.39-1.51.52-.8.77-1.42.77-1.86-.26,0-.39-.13-.39-.39h.39c1.1,0,3.35,1.76,6.75,5.27l-.39.74c0,.26.13.39.39.39-.52,2.77-1.39,5.15-2.64,7.14-1.9,0-3.4.49-4.5,1.48-.56,0-1.07-.12-1.51-.35l-4.89.74c0-.49-.25-.74-.74-.74l-2.64.35c0-.33-1-1.95-2.99-4.85v-1.51c0-.56.13-1.07.39-1.51-.26-.49-.39-.87-.39-1.12.26,0,.39-.13.39-.39h-.39l.39-.74c0-.26-.13-.39-.39-.39l.39-.74c0-.26-.13-.39-.39-.39l.39-.74v-2.25l-.39-.74h.39l-.39-.77v-.35h.74c-.49-1.59-.74-2.47-.74-2.64.49-.91.86-1.91,1.09-2.99l-.35-3.41c0-.7.25-5.2.74-13.5l.39-.74c-.42,0-.8-.25-1.12-.74,1.24-4.52,2.99-6.79,5.24-6.79l2.64-2.99Z"/>
<path class="cls-1" d="m208.22,45.6c2.25.33,3.66.72,4.22,1.16v-.77h3.09c.59,0,1.1.13,1.55.39.44-.26.96-.39,1.55-.39.84,0,1.49.13,1.93.39l2.29-.39h.77c.59,0,.97.65,1.16,1.93-.21.98-1.5,2.65-3.87,4.99l-1.9-.39c-.21,0-1.34.13-3.38.39,0-.26-.13-.39-.39-.39,0,.68-.39,1.58-1.16,2.71.21,1.03.47,1.55.77,1.55l-.39.77.39.77h-.39l.39.77v.39h-.77c0,.26.13.39.39.39-.52,1.9-.77,3.18-.77,3.83l.77,2.71c.77,0,2.16-.26,4.15-.77l.77.39.77-.39c.49.26.87.39,1.12.39v.77l-.39,1.93c.26,0,.39.13.39.39-.82,1.55-2.61,2.84-5.38,3.87,0-.26-.48-.39-1.44-.39-.45,1.03-.96,1.55-1.55,1.55v1.51l-.39,1.93h.39l-.77,2.32h.77c-.26.77-.52,1.16-.77,1.16l.39.77c0,.49-.26,1.78-.77,3.87.52.07.77.32.77.74v.39c-.77,1.2-1.16,2.23-1.16,3.09l.77.39h.77c2.58,0,4.09-.39,4.54-1.16l.77.39,1.55-.39c1.01.26,1.9.39,2.67.39v.39c0,.61-.39,1.51-1.16,2.71l-1.12-.77c-1.38,2.11-3.19,3.66-5.41,4.64l-.77-.39c-1.55.52-2.32.9-2.32,1.16l-.77-.39c-1.36.52-3.41,1.02-6.15,1.51,0-.26-.52-.76-1.55-1.51l.77-1.93-.39-.77c.26-.49.39-.88.39-1.16,0-.26-.13-.39-.39-.39l.39-1.93c0-.59-.13-1.1-.39-1.55,1.03-3.84,1.55-6.02,1.55-6.54l-.77-1.55c.52-2.44,1.03-4.11,1.55-5.03-.26-.44-.39-.95-.39-1.51h.39c0-.26-.13-.39-.39-.39.33-3.14.59-4.94.77-5.41h-.39l.39-.77c-.26-.49-.39-.88-.39-1.16h.39l-.39-.77c0-1.76.39-3.68,1.16-5.77-.26-.52-.39-.9-.39-1.16l.39-.77c0-.26-.13-.39-.39-.39l.39-1.93v-1.16l-.39-.77c.26,0,.39-.13.39-.39-.52,0-.77-.26-.77-.77,0-.26.13-.39.39-.39l-.77-1.51h.39c-.42-.84-.81-2-1.16-3.48l2.32-1.55c.52,0,.77-.13.77-.39Zm-4.25,52.42h.39v1.55h-.39v-1.55Zm8.86.77h.39c0,.28.13.67.39,1.16h-.77v-1.16Z"/>
<path class="cls-1" d="m30.63,33.89c.76.24,1,.49,1,1.08v1.54c0,.7-.35,1.03-1.08,1.03-.24,0-.51-.03-1.03-.22l-6.86-2.59c-1.38-.51-1.75-.84-1.75-1.97v-1.4c0-1.13.49-1.49,1.75-1.97l6.94-2.65c.38-.13.73-.19.89-.19.73,0,1.08.32,1.08,1.03v1.54c0,.59-.24.86-1,1.11l-3.86,1.24c-.35.11-.62.24-.62.59s.27.49.62.59l3.91,1.24Z"/>
<path class="cls-1" d="m45.53,37.73c.24.27.57.43.94.43.32,0,.65-.13.89-.35.24-.24.4-.57.4-1.16v-16.17c0-.59.46-1.05,1.05-1.05h1.78c.59,0,1.05.46,1.05,1.05v16.38c0,1.84-.62,3-1.7,3.83-.97.73-2.16,1.13-3.29,1.13-1,0-1.86-.16-2.59-.59l-.32-.22c-.22-.13-.38-.19-.54-.19-.22,0-.32.08-.51.19l-.35.22c-.73.43-1.57.59-2.56.59-1.19,0-2.29-.38-3.24-1.13-1.11-.84-1.73-2-1.73-3.83v-16.38c0-.59.46-1.05,1.05-1.05h1.78c.59,0,1.05.46,1.05,1.05v16.17c0,.54.14.84.35,1.08.24.27.57.43.94.43.32,0,.65-.13.89-.35.24-.24.4-.57.4-1.16v-16.17c0-.59.46-1.05,1.05-1.05h1.78c.59,0,1.05.46,1.05,1.05v16.2c0,.51.13.81.35,1.05Z"/>
<path class="cls-1" d="m60.95,37.89c.59,0,1.05.46,1.05,1.05v1.67c0,.59-.46,1.08-1.05,1.08h-5.97c-.59,0-1.05-.46-1.05-1.05v-20.16c0-.59.46-1.05,1.05-1.05h5.97c.59,0,1.05.46,1.05,1.05v1.7c0,.59-.46,1.05-1.05,1.05h-2.48c-.38,0-.65.27-.65.62v4.16c0,.35.27.62.65.62h1.94c.59,0,1.05.46,1.05,1.05v1.7c0,.59-.46,1.05-1.05,1.05h-1.94c-.38,0-.65.27-.65.62v4.21c0,.35.27.62.65.62h2.48Z"/>
<path class="cls-1" d="m69.18,19.42c1.3,0,2.4.43,3.29,1.11,1.08.84,1.81,2.08,1.81,3.81v1.16c0,2.46-.22,3.48-1.08,4.37l-.24.24c-.16.13-.22.27-.22.41s.05.27.22.4l.24.24c.84.86,1.08,1.81,1.08,3.89v1.75c0,1.51-.73,2.97-1.81,3.81-.89.67-2,1.08-3.29,1.08h-4.29c-.59,0-1.05-.46-1.05-1.05v-20.16c0-.59.46-1.05,1.05-1.05h4.29Zm-.81,3.62c-.35,0-.65.27-.65.62v4.54c0,.32.3.59.65.59h.51c.3,0,.76-.13,1.08-.54.19-.27.35-.65.35-1.16v-2.35c0-.62-.19-1.03-.46-1.3-.3-.3-.7-.41-.97-.41h-.51Zm0,9.23c-.35,0-.65.27-.65.62v4.54c0,.32.3.59.65.59h.51c.32,0,.81-.13,1.13-.59.19-.27.3-.62.3-1.11v-2.35c0-.62-.22-1.03-.46-1.3-.32-.32-.7-.41-.97-.41h-.51Z"/>
<path class="cls-1" d="m82.41,24.55c0-1.97.59-3.18,1.67-4.08.97-.78,2.19-1.24,3.51-1.24s2.54.46,3.51,1.24c1.08.89,1.67,2.11,1.67,4.08v1.08c0,.59-.46,1.05-1.05,1.05h-1.78c-.59,0-1.05-.46-1.05-1.05v-1.16c0-.59-.16-.92-.4-1.16-.24-.22-.57-.35-.89-.35-.38,0-.7.16-.94.43-.22.24-.35.54-.35,1.08v12.17c0,.54.14.84.35,1.08.24.27.57.43.94.43.32,0,.65-.13.89-.35.24-.24.4-.57.4-1.16v-1.43c0-.59.46-1.05,1.05-1.05h1.78c.59,0,1.05.46,1.05,1.05v1.35c0,1.97-.59,3.19-1.67,4.08-.97.78-2.19,1.24-3.51,1.24s-2.54-.46-3.51-1.24c-1.08-.89-1.67-2.11-1.67-4.08v-12.01Z"/>
<path class="cls-1" d="m94.89,24.55c0-1.97.59-3.18,1.67-4.08.97-.78,2.19-1.24,3.51-1.24s2.54.46,3.51,1.24c1.08.89,1.67,2.11,1.67,4.08v12.01c0,1.97-.59,3.19-1.67,4.08-.97.78-2.19,1.24-3.51,1.24s-2.54-.46-3.51-1.24c-1.08-.89-1.67-2.11-1.67-4.08v-12.01Zm6.48-.08c0-.59-.16-.92-.4-1.16-.24-.22-.57-.35-.89-.35s-.65.14-.89.35c-.24.24-.41.57-.41,1.16v12.17c0,.59.16.92.41,1.16.24.22.57.35.89.35s.65-.13.89-.35c.24-.24.4-.57.4-1.16v-12.17Z"/>
<path class="cls-1" d="m111.41,40.64c0,.59-.46,1.05-1.05,1.05h-1.78c-.59,0-1.05-.46-1.05-1.05v-19.62c0-.65.11-.97.35-1.24.24-.27.62-.49,1.08-.49.38,0,.65.13.97.3l.16.08c.19.08.32.19.7.19.35,0,.78-.24,1-.3.59-.22,1.08-.27,1.59-.27.89,0,1.62.24,2.05.43.22.08.43.16.76.16.3,0,.54-.11.89-.22.41-.13,1.11-.38,2.19-.38,1.89,0,3.43.78,4.32,2.13.51.78.78,1.75.78,3.21v16.01c0,.59-.46,1.05-1.05,1.05h-1.78c-.59,0-1.05-.46-1.05-1.05v-16.2c0-.54-.14-.81-.35-1.05-.24-.27-.57-.43-.94-.43s-.7.16-.94.43c-.22.24-.35.51-.35,1.08v16.17c0,.59-.46,1.05-1.05,1.05h-1.78c-.59,0-1.05-.46-1.05-1.05v-16.2c0-.54-.13-.81-.35-1.05-.24-.27-.57-.43-.94-.43s-.7.16-.94.43c-.22.24-.35.51-.35,1.05v16.2Z"/>
<path class="cls-1" d="m131.17,33.46c-.38,0-.65.27-.65.62v6.56c0,.59-.46,1.05-1.05,1.05h-1.78c-.59,0-1.05-.46-1.05-1.05v-20.16c0-.59.46-1.05,1.05-1.05h4.13c1.32,0,2.54.46,3.51,1.24,1.08.89,1.67,2.11,1.67,4.08v3.4c0,1.97-.59,3.19-1.67,4.08-.97.78-2.19,1.24-3.51,1.24h-.65Zm0-10.42c-.35,0-.65.27-.65.62v5.59c0,.32.3.59.65.59h.51c.27,0,.67-.11,1-.43.24-.27.43-.67.43-1.27v-3.4c0-.7-.27-1.13-.57-1.38-.3-.24-.62-.32-.86-.32h-.51Z"/>
<path class="cls-1" d="m139.19,24.55c0-1.97.59-3.18,1.67-4.08.97-.78,2.19-1.24,3.51-1.24s2.54.46,3.51,1.24c1.08.89,1.67,2.11,1.67,4.08v12.01c0,1.97-.59,3.19-1.67,4.08-.97.78-2.19,1.24-3.51,1.24s-2.54-.46-3.51-1.24c-1.08-.89-1.67-2.11-1.67-4.08v-12.01Zm6.48-.08c0-.59-.16-.92-.4-1.16-.24-.22-.57-.35-.89-.35s-.65.14-.89.35c-.24.24-.41.57-.41,1.16v12.17c0,.59.16.92.41,1.16.24.22.57.35.89.35s.65-.13.89-.35c.24-.24.4-.57.4-1.16v-12.17Z"/>
<path class="cls-1" d="m158.31,24.45c0-.54-.13-.84-.35-1.08-.24-.27-.57-.43-.94-.43s-.7.16-.94.43c-.22.24-.35.54-.35,1.08v16.2c0,.59-.46,1.05-1.05,1.05h-1.78c-.59,0-1.05-.46-1.05-1.05v-19.62c0-.65.11-.97.35-1.24.24-.27.62-.49,1.08-.49.4,0,.65.13.97.3l.16.08c.19.08.38.16.62.16.4,0,.92-.22,1.32-.35s.84-.19,1.24-.19c1.13,0,2.38.49,2.97,1,1.3,1.08,1.65,2.62,1.65,3.91v16.44c0,.59-.46,1.05-1.05,1.05h-1.78c-.59,0-1.05-.46-1.05-1.05v-16.2Z"/>
<path class="cls-1" d="m171.48,37.89c.59,0,1.05.46,1.05,1.05v1.67c0,.59-.46,1.08-1.05,1.08h-5.97c-.59,0-1.05-.46-1.05-1.05v-20.16c0-.59.46-1.05,1.05-1.05h5.97c.59,0,1.05.46,1.05,1.05v1.7c0,.59-.46,1.05-1.05,1.05h-2.48c-.38,0-.65.27-.65.62v4.16c0,.35.27.62.65.62h1.94c.59,0,1.05.46,1.05,1.05v1.7c0,.59-.46,1.05-1.05,1.05h-1.94c-.38,0-.65.27-.65.62v4.21c0,.35.27.62.65.62h2.48Z"/>
<path class="cls-1" d="m180.85,24.45c0-.54-.13-.84-.35-1.08-.24-.27-.57-.43-.94-.43s-.7.16-.94.43c-.22.24-.35.54-.35,1.08v16.2c0,.59-.46,1.05-1.05,1.05h-1.78c-.59,0-1.05-.46-1.05-1.05v-19.62c0-.65.11-.97.35-1.24.24-.27.62-.49,1.08-.49.4,0,.65.13.97.3l.16.08c.19.08.38.16.62.16.4,0,.92-.22,1.32-.35s.84-.19,1.24-.19c1.13,0,2.38.49,2.97,1,1.3,1.08,1.65,2.62,1.65,3.91v16.44c0,.59-.46,1.05-1.05,1.05h-1.78c-.59,0-1.05-.46-1.05-1.05v-16.2Z"/>
<path class="cls-1" d="m194.86,19.42c.59,0,1.05.46,1.05,1.05v1.7c0,.59-.46,1.05-1.05,1.05h-1.32c-.38,0-.65.27-.65.62v16.76c0,.59-.46,1.08-1.05,1.08h-1.78c-.59,0-1.05-.46-1.05-1.05v-16.79c0-.35-.27-.62-.65-.62h-1.32c-.59,0-1.05-.46-1.05-1.05v-1.7c0-.59.46-1.05,1.05-1.05h7.83Z"/>
<path class="cls-1" d="m207.63,36.56c0,1.97-.62,3.19-1.7,4.08-.97.78-2.19,1.24-3.51,1.24s-2.54-.46-3.51-1.24c-1.08-.89-1.67-2.11-1.67-4.08v-1.35c0-.59.51-1.05,1.11-1.05h1.73c.59,0,1.05.46,1.05,1.05v1.43c0,.59.14.92.38,1.16.24.22.57.35.89.35.38,0,.73-.16.97-.43.22-.24.35-.54.35-1.08v-1.21c0-.78-.08-1.32-.3-1.73-.27-.51-.7-.84-1.35-1.24l-1.75-1.13c-1.21-.78-2.02-1.4-2.51-2.35-.38-.76-.57-1.75-.57-3.21v-1.21c0-1.97.59-3.18,1.67-4.08.97-.78,2.19-1.24,3.51-1.24s2.54.46,3.51,1.24c1.08.89,1.67,2.11,1.67,4.08v1.08c0,.59-.54,1.05-1.13,1.05h-1.7c-.59,0-1.05-.46-1.05-1.05v-1.16c0-.59-.16-.92-.4-1.16-.24-.22-.57-.35-.89-.35-.38,0-.7.16-.94.43-.22.24-.35.54-.35,1.08v.89c0,.76.11,1.27.3,1.67.24.51.67.84,1.35,1.27l1.75,1.13c1.16.76,1.97,1.35,2.46,2.19.46.76.65,1.75.65,3.29v1.65Z"/>
<path class="cls-1" d="m215.66,32.65c.35-.11.62-.24.62-.59s-.27-.49-.62-.59l-3.86-1.24c-.76-.24-1-.51-1-1.11v-1.54c0-.7.35-1.03,1.08-1.03.16,0,.51.05.89.19l6.94,2.65c1.27.49,1.75.84,1.75,1.97v1.4c0,1.13-.38,1.46-1.75,1.97l-6.86,2.59c-.51.19-.78.22-1.03.22-.73,0-1.08-.32-1.08-1.03v-1.54c0-.59.24-.84,1-1.08l3.91-1.24Z"/>
<rect class="cls-2" x="10.69" y="10.62" width="219.78" height="90.84"/>
</svg>